<?xml version="1.0" encoding="UTF-8"?>
<svg xmlns="http://www.w3.org/2000/svg" version="1.1" viewBox="0 0 512 512">
  <!-- Generator: Adobe Illustrator 29.2.1, SVG Export Plug-In . SVG Version: 2.1.0 Build 116)  -->
  <defs>
    <style>
      .st0 {
        fill: #fff;
      }

      .st1 {
        fill: #56534e;
      }

      .st2 {
        display: none;
      }
    </style>
  </defs>
  <g id="Layer_1">
    <g>
      <path class="st1" d="M-.43,486.81c0,14.15,11.47,25.62,25.62,25.62h230.59L-.43,256.21v230.59Z"/>
      <path class="st1" d="M255.79,0H25.19C11.04,0-.43,11.47-.43,25.62v230.59h230.59c14.15,0,25.62,11.47,25.62,25.62v230.59h0c141.5,0,256.21-114.71,256.21-256.21h0C512,114.71,397.29,0,255.79,0Z"/>
    </g>
  </g>
  <g id="Layer_2" class="st2">
    <g>
      <path class="st0" d="M1.15,485.48c0,14.09,11.43,25.52,25.52,25.52h229.69L1.15,255.79v229.69Z"/>
      <path class="st0" d="M256.36.57H26.67C12.57.57,1.15,12,1.15,26.09v229.69h229.69c14.09,0,25.52,11.43,25.52,25.52v229.69h0c140.95,0,255.21-114.26,255.21-255.21h0C511.57,114.84,397.31.57,256.36.57Z"/>
    </g>
  </g>
</svg>